<?xml version="1.0" standalone="no"?><!DOCTYPE svg PUBLIC "-//W3C//DTD SVG 1.1//EN" "http://www.w3.org/Graphics/SVG/1.1/DTD/svg11.dtd"><svg t="1649119192963" class="icon" viewBox="0 0 1024 1024" version="1.1" xmlns="http://www.w3.org/2000/svg" p-id="5497" xmlns:xlink="http://www.w3.org/1999/xlink" width="32" height="32"><defs><style type="text/css">@font-face { font-family: feedback-iconfont; src: url("//at.alicdn.com/t/font_1031158_u69w8yhxdu.woff2?t=1630033759944") format("woff2"), url("//at.alicdn.com/t/font_1031158_u69w8yhxdu.woff?t=1630033759944") format("woff"), url("//at.alicdn.com/t/font_1031158_u69w8yhxdu.ttf?t=1630033759944") format("truetype"); }
</style></defs><path d="M549.592148 966.065782l0.8701-0.94261-0.580067-1.015117z" fill="#477C95" p-id="5498"></path><path d="M594.329836 907.116445l0.43505 27.408179a131.24022 131.24022 0 0 0 20.737405-24.689113l-20.157338-3.951709z" fill="#6298AE" p-id="5499"></path><path d="M397.75954 959.286245a2.392777 2.392777 0 0 0 0.217525 2.646557l17.07573 17.873323v-4.713047l-15.516799-16.205629c-0.43505-0.616321-1.268897-0.43505-1.776456 0.398796zM414.980287 980.784988v-0.580067 0.580067z" fill="#477C95" p-id="5500"></path><path d="M591.683279 910.379324l0.362542 26.248044v0.217525c0 0.906355 0.580067 1.558931 1.268897 1.558931 0.761338 0 1.341406-1.015118 1.341405-2.06649v-1.81271l-0.43505-27.408179zM597.919002 902.475907l-2.574049 3.407895 20.157338 3.951709 1.631439 0.326288h0.217525a1.740202 1.740202 0 0 0 1.37766-1.63144 1.885219 1.885219 0 0 0-1.051372-2.175252zM607.8164 791.102992l0.543813-2.610303-12.217667-22.042556a2.429032 2.429032 0 0 1 0.290034-2.682811 1.087626 1.087626 0 0 1 1.885218 0.253779l10.876261 19.758541c8.410975-46.514144 10.876261-101.511772 13.051514-156.618162l-14.501682 16.966968a1.413914 1.413914 0 0 1-0.870101 0.471304 1.232643 1.232643 0 0 1-1.051372-0.652576 2.429032 2.429032 0 0 1 0.217526-2.646556l15.770578-18.562153a96.14615 96.14615 0 0 0-15.553053 0.543813c-0.616321 0.580067-1.37766 0.253779-1.740202-0.616321a2.50154 2.50154 0 0 1 0.580067-2.682812c0.362542-0.326288 1.268897-1.12388 13.885361-1.087626l-13.595327-14.175394a2.320269 2.320269 0 0 1-0.217525-2.646556c0.471305-0.870101 1.341406-1.051372 1.921473-0.435051l15.371782 16.024358 0.326288-8.302212 0.652576-18.852187c1.413914-38.683236 4.785555-65.801381 9.027297-85.052363-14.719207 13.124022-23.819012 33.825173-29.257143 58.006727l1.921473 5.039334v0.761339a2.392777 2.392777 0 0 1 0 0.507559s0 0.217525-0.217526 0.362542a1.957727 1.957727 0 0 1-0.398796 0.652575l-3.407895 2.610303c-7.250841 39.625845-5.981944 86.103735-4.930572 122.285431l3.335387 5.184351a2.102744 2.102744 0 0 1 0.43505 1.341406v0.362542a2.320269 2.320269 0 0 1-0.362542 0.870101l-2.827828 2.791573a280.788812 280.788812 0 0 1-0.580067 41.003505 560.888794 560.888794 0 0 1-8.701009 57.752948 1.993981 1.993981 0 0 1 0.507559-0.797593z" fill="#6298AE" p-id="5501"></path><path d="M683.660195 507.631368v0.036255-0.036255z" fill="#477C95" p-id="5502"></path><path d="M429.554477 538.882492l-10.876261-9.426093c0 9.679873 0 19.14222-0.217525 28.133263l11.202549-15.553054c-0.108763-1.087626-0.108763-2.102744-0.108763-3.154116zM435.210133 340.78952l-13.704089 16.314392a1.232643 1.232643 0 0 1-0.906355 0.471305 1.160135 1.160135 0 0 1-1.015118-0.616322 2.429032 2.429032 0 0 1 0.217525-2.682811l15.698071-18.670915a105.137192 105.137192 0 0 0-15.553054 0.652576 1.12388 1.12388 0 0 1-0.652576 0.326288 1.268897 1.268897 0 0 1-1.12388-0.906356 2.537794 2.537794 0 0 1 0.580067-2.682811c0.362542-0.362542 1.268897-1.12388 13.885361-1.196388l-13.667835-14.066632a2.392777 2.392777 0 0 1-0.217526-2.610302c0.507559-0.870101 1.341406-1.087626 1.957727-0.471305l15.081749 15.589308c2.537794-42.308656 5.981944-74.973694 10.876262-94.260931a117.862418 117.862418 0 0 0-23.2752 40.459692l1.196389 6.598265v0.543813a1.957727 1.957727 0 0 1 0 0.797592 1.667693 1.667693 0 0 1-0.68883 0.652576l-3.226624 0.797593a175.216569 175.216569 0 0 0-4.785555 21.208709c-4.495521 23.927775-2.646557 70.369411-0.326288 121.41533l1.921473 0.217525a1.522677 1.522677 0 0 1 1.12388 1.341406 2.392777 2.392777 0 0 1-0.543813 1.993981l-2.24776 2.537795c1.37766 29.83721 2.791574 60.979572 3.19037 89.910426l11.13004 9.498602c0.652576-73.233493 2.211506-140.049991 5.075589-193.162401zM514.788111 775.839972l12.797735 10.876261q-0.398796-14.247902-0.435051-29.547177l-12.362684 17.220748zM514.389315 265.090742a55.287662 55.287662 0 0 0-3.407895-9.498602c-1.413914-2.610303-2.791574-5.00308-4.205488-7.250841l-4.531775 6.271978zM622.571861 116.013454l10.368702-12.32643a72.508409 72.508409 0 0 0-11.963887-23.492724q1.087626 13.015259 1.486422 30.489786c0.072508 1.703948 0.072508 3.516658 0.108763 5.329368zM594.221073 88.859055c-4.205488 29.329651-6.271977 77.69276-7.794654 127.361019l14.755461-15.154257a1.12388 1.12388 0 0 1 1.885219 0.362542 2.429032 2.429032 0 0 1-0.362542 2.646557l-16.423155 16.858205v1.268897l15.226766 18.562153a2.356523 2.356523 0 0 1 0 2.646557c-0.290034 0.471305-0.652576 0.725084-1.015118 0.688829a1.087626 1.087626 0 0 1-0.906355-0.43505L586.063877 227.205098c-0.326288 10.586228-0.616321 21.172455-0.870101 31.577412-2.102744 77.00393-4.096725 149.766118-11.782616 174.020181-1.631439 5.075589-3.407895 9.679873-5.25686 13.957868l13.957869 0.833847a1.740202 1.740202 0 0 1 1.232643 1.993981 1.81271 1.81271 0 0 1-1.413914 1.812711l-14.82797-0.906356a1.087626 1.087626 0 0 1-0.543813 0.326288l2.247761 30.562294a1.957727 1.957727 0 0 1-1.232643 2.175253c-0.68883 0-1.268897-0.652576-1.341406-1.595185l-1.957727-26.683095c-5.94569 10.876261-12.870243 18.127102-20.773659 21.752523a28.677076 28.677076 0 0 1-11.166295 2.755319 36.254204 36.254204 0 0 1-20.592388-6.018197q0.43505 17.728306 0.797593 36.254204c9.752381 2.50154 39.263303 5.981944 63.263586-33.897681 15.118003-25.087909 25.377943-89.366614 31.939954-158.140839L588.492909 333.538679a1.305151 1.305151 0 0 1-0.652576 0.290034 1.341406 1.341406 0 0 1-1.196389-0.942609 2.50154 2.50154 0 0 1 0.580068-2.610303l20.592388-16.858205-14.501682-22.187573a2.50154 2.50154 0 0 1 0-2.682811 1.12388 1.12388 0 0 1 1.921473 0l12.942751 19.903558c6.199469-68.882988 8.737263-140.775075 8.773517-181.271021L604.190979 142.660294a1.232643 1.232643 0 0 1-0.906355 0.471305 1.160135 1.160135 0 0 1-1.015118-0.616322 2.50154 2.50154 0 0 1 0.217526-2.682811l14.501681-17.32951v-1.341405a99.699062 99.699062 0 0 0-14.501681 0.652575 0.833847 0.833847 0 0 1-0.652576 0.290034 1.160135 1.160135 0 0 1-1.087626-0.870101 2.646557 2.646557 0 0 1 0.543813-2.719065c0.362542-0.253779 1.268897-1.087626 13.88536-1.160135l-13.667835-14.030377a2.465286 2.465286 0 0 1-0.217525-2.646557c0.507559-0.870101 1.37766-1.087626 1.957727-0.471304l13.559072 13.994122v-2.791573c-0.398796-16.531917-1.196389-28.387042-2.102744-36.943034a25.377943 25.377943 0 0 0-6.489502-3.407896 42.562436 42.562436 0 0 0-2.972845 9.788636c-2.284015 15.299274-9.462347 11.891379-11.021278 8.012179z" fill="#6298AE" p-id="5503"></path><path d="M352.514293 449.00832v-1.015118l-0.652576 1.37766z" fill="#477C95" p-id="5504"></path><path d="M640.445184 138.201027v0.253779a205.633847 205.633847 0 0 0-6.416995-31.178616l-10.876261 13.087768zM325.32364 339.049318a1.12388 1.12388 0 0 1 1.921473 0 2.50154 2.50154 0 0 1-0.217526 2.646557l-17.873322 21.281218v0.652576l17.039476 17.547035a2.392777 2.392777 0 0 1 0 2.610303 1.450168 1.450168 0 0 1-1.087626 0.797592 1.268897 1.268897 0 0 1-0.833847-0.326288l-15.444291-15.95185c-1.740202 51.517224-2.465286 114.925828 1.232643 168.545796l10.477465-18.127102a1.12388 1.12388 0 0 1 1.921473-0.398796 2.320269 2.320269 0 0 1 0 2.646557L310.531925 542.326642a9.607364 9.607364 0 0 0 0 0.978863 105.318463 105.318463 0 0 0 14.501681-4.7493 1.051372 1.051372 0 0 1 1.848965 0 2.682811 2.682811 0 0 1 0 2.791573c-0.326288 0.398796-1.087626 1.413914-13.595327 4.966826l15.371783 9.933652a2.175252 2.175252 0 0 1 0.580067 2.50154 1.413914 1.413914 0 0 1-1.232643 1.087627 1.268897 1.268897 0 0 1-0.616321 0l-16.423155-10.368703a422.542751 422.542751 0 0 0 8.628501 58.876828c7.830908 32.882563 25.377943 57.499168 43.215011 69.898106l-3.045353-26.683095a2.030235 2.030235 0 0 1 1.12388-2.24776c0.725084-0.253779 1.450168 0.398796 1.558931 1.450168l3.371641 29.510922 1.848964 1.015118 18.997204-11.963888c0.725084-0.43505 1.486422 0 1.776456 0.906356a2.356523 2.356523 0 0 1-0.761339 2.537794l-16.531917 10.404957a36.870526 36.870526 0 0 0 19.395999 3.915454c28.242025-2.936591 36.036679-18.707169 37.305577-21.752523 0.326288-20.2661 0.616321-43.178757 0.906355-67.541583q0.326288-25.667977 0.68883-50.502106l-11.275058 15.69807c-0.870101 26.066773-3.335387 48.363109-8.519738 63.408604l0.870101 2.211506v0.616322a4.024217 4.024217 0 0 1 0 0.688829l-0.181271 0.25378a1.703948 1.703948 0 0 1-0.435051 0.797592l-3.407895 2.646557a32.628784 32.628784 0 0 1-5.039334 7.577129c-29.329651 31.142361-42.743707 4.56803-48.181838-40.894742l-3.154115 0.543813a1.305151 1.305151 0 0 1-1.196389-0.978864 2.537794 2.537794 0 0 1 0.181271-2.102744l3.371641-5.619401c-3.915454-40.640963-2.320269-93.499593-0.290034-134.140556l-4.31425-2.610303a1.450168 1.450168 0 0 1-0.580067-0.833847 2.75532 2.75532 0 0 1 0-0.543813 2.102744 2.102744 0 0 1 0-0.833846l5.836927-12.797735c1.12388-20.012321 2.175252-35.239087 2.320269-41.583572-0.870101-44.520163-8.664755-77.221455-19.939813-98.248893l-2.900336 1.486422a1.015118 1.015118 0 0 1-0.471305 0 1.051372 1.051372 0 0 1-0.978863-0.580067 2.50154 2.50154 0 0 1 0-2.102744l1.486422-3.987963a53.257426 53.257426 0 0 0-18.815932-19.178474c-0.797592 11.818871-2.75532 42.707453-4.205488 82.043265zM511.307708 464.96017c3.117862 2.392777 16.495663 11.492583 30.562294 4.858063 6.924553-3.262878 13.051514-9.861144 18.344627-19.722287l-17.655797-1.051372c-0.761338 0-1.305151-0.942609-1.232643-1.957727s0.761338-1.885219 1.486422-1.81271l19.105966 1.12388 0.217525-0.471304a136.315808 136.315808 0 0 0-9.969906-13.921615c-0.68883-0.217525-1.051372-1.160135-0.833847-2.211506a1.558931 1.558931 0 0 1 1.740202-1.413914c0.398796 0 1.413914 0.43505 9.788635 12.870242l-1.776456-24.000283a1.993981 1.993981 0 0 1 1.196389-2.211506c0.725084 0 1.413914 0.543813 1.486422 1.631439l1.63144 21.752522c1.015118-2.610303 1.993981-5.365622 2.900336-8.265958 7.250841-22.876403 9.317331-98.212639 11.311312-171.119844 0.290034-10.876261 0.616321-21.752523 0.906355-32.266242l-17.003222 17.438272a1.268897 1.268897 0 0 1-0.833847 0.398796 1.12388 1.12388 0 0 1-1.087626-0.761338 2.429032 2.429032 0 0 1 0.362542-2.646557l18.70717-19.14222v-1.196389l-15.661817-19.069711a2.356523 2.356523 0 0 1 0-2.646557 1.12388 1.12388 0 0 1 1.921473-0.290034l13.957869 17.003222c1.885219-61.849673 4.459267-116.448504 10.876261-143.421632l-0.652576-1.015118c-15.26302 6.598265-23.855266 33.100089-28.749584 69.209276l0.616322 1.37766a2.284015 2.284015 0 0 1 0 1.486423 1.486422 1.486422 0 0 1-0.68883 0.906355l-0.398796 0.217525c-5.909435 46.91294-6.018198 108.545088-6.562011 163.433953l1.160134 3.045353a1.450168 1.450168 0 0 1 0 0.398796 1.740202 1.740202 0 0 1 0 0.870101v0.217525a1.740202 1.740202 0 0 1-0.471304 0.797593l-0.68883 0.543813c-0.833847 77.076438-3.045353 138.817348-24.181554 123.808108-7.250841-5.075589-8.628501-31.867446-9.244823-63.916163l-2.284014 0.652576h-0.25378a1.160135 1.160135 0 0 1-1.12388-0.833847 2.50154 2.50154 0 0 1 0-2.102743l3.407895-6.63452c-0.543813-33.571393-0.761338-70.949478-5.836927-94.877252l-13.377801-11.492583c3.62542 48.834413 6.707028 121.052788 8.88228 206.431439z" fill="#6298AE" p-id="5505"></path><path d="M280.875985 287.749619a78.091556 78.091556 0 0 1 0-8.302212 1306.855302 1306.855302 0 0 0-18.127102 171.699911l12.688972-17.692052a1.12388 1.12388 0 0 1 1.957727 0 2.537794 2.537794 0 0 1 0 2.719066l-14.719207 20.483625v0.507559l17.728306 15.118003a2.320269 2.320269 0 0 1 0.362542 2.610303 1.37766 1.37766 0 0 1-1.160135 0.906355 0.942609 0.942609 0 0 1-0.725084-0.253779l-16.314392-13.885361v4.56803c-0.978864 86.611294 12.145158 155.893078 30.924837 201.718393l3.62542-24.797876c0-1.051372 0.906355-1.776456 1.631439-1.631439s1.196389 1.12388 1.051372 2.138998l-4.060471 27.625704a177.645601 177.645601 0 0 0 12.217667-14.284157c0.253779-1.051372 1.015118-1.450168 1.703948-1.160135a2.211506 2.211506 0 0 1 0.797592 2.501541c0 0.543813-0.507559 1.921473-10.69499 13.19653l17.510781-1.848964c0.870101-0.253779 1.37766 0.68883 1.413913 1.740201s-0.616321 1.957727-1.341405 2.030236l-20.628642 2.175252c13.015259 29.003363 28.314534 47.565516 43.505045 53.728731 44.556417 18.127102 81.535705-21.099947 87.01009-27.118145 0.217525-7.649637 0.398796-16.096867 0.580067-25.196672-5.619402 6.960807-16.495663 15.589308-36.979288 17.728306h-1.848964a43.069995 43.069995 0 0 1-22.006302-5.800673l2.972844 25.885502a2.138998 2.138998 0 0 1-1.160134 2.284015H368.538651c-0.652576 0-1.196389-0.580067-1.305151-1.450168l-3.19037-27.951992-20.121083 12.688972a1.196389 1.196389 0 0 1-0.580068 0.181271 1.305151 1.305151 0 0 1-1.196388-1.087626 2.320269 2.320269 0 0 1 0.761338-2.537795l18.127102-11.528837c-19.468508-13.087768-38.28444-39.263303-46.622907-74.357373a427.002018 427.002018 0 0 1-8.737263-60.290741L292.404822 573.795291a1.37766 1.37766 0 0 1-1.087626 0.797593 1.160135 1.160135 0 0 1-0.833846-0.362542 2.465286 2.465286 0 0 1-0.181271-2.682811l14.900477-25.885502-19.686032-12.435192a2.320269 2.320269 0 0 1-0.580068-2.537795c0.362542-0.942609 1.196389-1.37766 1.848965-0.942609l18.127102 11.420074c-3.951708-54.381306-3.299133-118.660011-1.558931-171.011081l-13.19653 15.734324a1.667693 1.667693 0 0 1-0.906355 0.507559 1.305151 1.305151 0 0 1-1.051372-0.652575 2.50154 2.50154 0 0 1 0.253779-2.682812l15.081749-18.127102v-0.68883a96.943742 96.943742 0 0 0-14.972986 0.652576 1.015118 1.015118 0 0 1-0.652576 0.326288 1.305151 1.305151 0 0 1-1.12388-0.870101 2.537794 2.537794 0 0 1 0.580067-2.719065c0.362542-0.326288 1.268897-1.12388 13.88536-1.160135l-13.667835-14.066631a2.392777 2.392777 0 0 1-0.217525-2.646557c0.471305-0.870101 1.341406-1.051372 1.921473-0.471305l14.501682 14.900478c1.595185-41.90986 3.62542-74.284865 4.495521-84.581058a28.677076 28.677076 0 0 0-13.559073-1.051372 40.894742 40.894742 0 0 0-2.320269 8.19345c-2.75532 16.531917-10.876261 11.166295-11.528837 6.997061z" fill="#6298AE" p-id="5506"></path><path d="M352.260514 454.120163V453.177554l-0.68883 0.471304z" fill="#477C95" p-id="5507"></path><path d="M504.999476 245.622234c-1.37766-2.138998-2.791574-4.096725-4.205487-5.909435 0.290034 3.299133 0.616321 6.81579 0.906355 10.477465z" fill="#6298AE" p-id="5508"></path><path d="M691.63612 636.696336l0.68883-0.181271v-0.833847zM691.672374 642.134466l0.217525-1.667693-1.413914 0.362542zM325.251131 384.76587a1.450168 1.450168 0 0 0 1.087627-0.797592 2.392777 2.392777 0 0 0 0-2.610303l-17.039476-17.547035v4.676792l15.444291 15.95185a1.268897 1.268897 0 0 0 0.507558 0.326288zM303.752388 358.264047l-14.501681-14.900478c-0.580067-0.580067-1.450168-0.398796-1.921473 0.471304a2.392777 2.392777 0 0 0 0.217525 2.646557l13.667835 14.066632h2.429032c0.072508-0.761338 0.072508-1.631439 0.108762-2.284015zM288.41686 382.989414a2.50154 2.50154 0 0 0-0.25378 2.682811 1.305151 1.305151 0 0 0 1.051372 0.652576 1.667693 1.667693 0 0 0 0.906356-0.507559l13.160276-15.734325v-5.075588zM327.245113 339.230589a1.12388 1.12388 0 0 0-1.921473 0l-15.988104 19.033458c0 1.703948 0 3.371641-0.181271 5.075588l17.873322-21.281218a2.50154 2.50154 0 0 0 0.217526-2.827828z" fill="#477C95" p-id="5509"></path><path d="M303.67988 360.511807h-2.429032c-12.616463 0-13.522818 0.833847-13.88536 1.160135a2.537794 2.537794 0 0 0-0.580067 2.719065 1.305151 1.305151 0 0 0 1.12388 0.870101 1.015118 1.015118 0 0 0 0.652576-0.326288 96.943742 96.943742 0 0 1 14.972986-0.652575c0.036254-1.232643 0.072508-2.50154 0.145017-3.770438zM617.061222 114.200743l-13.559073-13.994122c-0.580067-0.616321-1.450168-0.398796-1.957727 0.471304a2.465286 2.465286 0 0 0 0.217526 2.646557l13.667835 14.030377h1.667693c0-1.12388 0-2.102744-0.036254-3.154116zM623.043165 120.363958V124.460683l15.589308 16.930714a1.015118 1.015118 0 0 0 0.797593 0.362542 1.413914 1.413914 0 0 0 1.12388-0.797593 3.262878 3.262878 0 0 0 0-0.580067 2.138998 2.138998 0 0 0-0.217525-1.776456v-0.253779zM622.608115 117.753656a1.81271 1.81271 0 0 1 0.652576 1.55893 2.138998 2.138998 0 0 1-0.362542 1.196389l10.876261-13.087768 7.250841-8.555992a2.50154 2.50154 0 0 0 0.217525-2.682811 1.12388 1.12388 0 0 0-1.921473 0l-6.562011 7.794654-10.187431 12.036396c0 0.616321 0 1.12388 0.036254 1.740202zM602.595794 139.832466a2.50154 2.50154 0 0 0-0.217525 2.682811 1.160135 1.160135 0 0 0 1.015118 0.616322 1.232643 1.232643 0 0 0 0.906355-0.471305l12.870242-15.299274v-4.858064zM622.608115 120.799009v-0.181271s0.036254 0.108763 0 0.181271z" fill="#477C95" p-id="5510"></path><path d="M622.898149 120.508975a2.138998 2.138998 0 0 0 0.362542-1.196389 1.81271 1.81271 0 0 0-0.652576-1.55893v3.045353a0.398796 0.398796 0 0 0 0.290034-0.290034zM617.097476 117.354859h-1.667693c-12.616463 0-13.522818 0.906355-13.885361 1.160135a2.646557 2.646557 0 0 0-0.543813 2.719065 1.160135 1.160135 0 0 0 1.087626 0.870101 0.833847 0.833847 0 0 0 0.652576-0.290034 99.699062 99.699062 0 0 1 14.501682-0.652575c-0.108763-1.268897-0.108763-2.610303-0.145017-3.806692zM418.750724 315.085289a2.392777 2.392777 0 0 0 0.217526 2.610303l13.667835 14.066631h3.081607v-1.55893l-15.081749-15.589308c-0.543813-0.616321-1.341406-0.398796-1.885219 0.471304zM455.802521 355.653744a1.341406 1.341406 0 0 0 0.833847 0.362542 1.450168 1.450168 0 0 0 1.087626-0.797592 2.247761 2.247761 0 0 0-0.217525-2.646557L441.04706 335.460152c0 1.522677 0 3.045353-0.253779 4.56803zM458.412824 313.127562a2.50154 2.50154 0 0 0 0.217525-2.682811 1.12388 1.12388 0 0 0-1.921473 0l-15.408037 18.344628c0 1.703948 0 3.444149-0.290033 5.184351zM419.802096 354.23983a2.429032 2.429032 0 0 0-0.217525 2.682811 1.160135 1.160135 0 0 0 1.015118 0.616322 1.232643 1.232643 0 0 0 0.906355-0.471305L435.210133 340.78952c0-1.776456 0-3.62542 0.290034-5.184351zM418.750724 332.958612a2.537794 2.537794 0 0 0-0.580067 2.682811 1.268897 1.268897 0 0 0 1.12388 0.906355 1.12388 1.12388 0 0 0 0.652576-0.326287 105.137192 105.137192 0 0 1 15.553054-0.652576c0-1.268897 0-2.574049 0.217525-3.625421h-3.081607c-12.616463-0.108763-13.341547 0.652576-13.885361 1.015118zM565.543997 438.349584l-1.631439-21.752523c0-1.087626-0.761338-1.776456-1.486422-1.631439a1.993981 1.993981 0 0 0-1.196389 2.211507l1.776456 24.000283 0.833847 1.232643c0.471305-1.268897 1.12388-2.610303 1.703947-4.060471zM566.232827 450.966047c-0.725084 1.486422-1.413914 2.972845-2.175252 4.350505l1.957727 26.683094c0 0.942609 0.652576 1.595185 1.341406 1.595185a1.957727 1.957727 0 0 0 1.232643-2.175252l-2.247761-30.562295h-0.253779zM567.175437 450.422234l14.827969 0.906355a1.81271 1.81271 0 0 0 1.413914-1.81271 1.740202 1.740202 0 0 0-1.232643-1.993981l-13.957868-0.833847c-0.253779 0.543813-0.471305 1.160135-0.725085 1.667693a2.247761 2.247761 0 0 1-0.326287 2.06649zM542.957628 445.274137c-0.725084 0-1.413914 0.761338-1.486422 1.81271s0.471305 1.921473 1.232643 1.957727l17.51078 1.051372c0.616321-1.160135 1.232643-2.429032 1.848965-3.62542zM563.84005 442.482563l-0.833847-1.232643c-8.374721-12.435192-9.389839-12.76148-9.788635-12.870242a1.558931 1.558931 0 0 0-1.740202 1.413914c-0.217525 1.051372 0 1.993981 0.833847 2.211506a136.315808 136.315808 0 0 1 9.969906 13.921615c0.543813-1.12388 1.051372-2.247761 1.558931-3.44415z" fill="#477C95" p-id="5511"></path><path d="M567.46547 448.428253c-0.398796 0.870101-0.797592 1.703948-1.232643 2.537794s0 0 0.25378 0a1.087626 1.087626 0 0 0 0.543813-0.326288 2.247761 2.247761 0 0 0 0.43505-2.211506zM476.757451 439.292193l14.864224 15.553054a1.015118 1.015118 0 0 0 0.833847 0.362542 1.305151 1.305151 0 0 0 1.087626-0.797593 2.320269 2.320269 0 0 0 0-2.646556l-13.559073-14.211648h-3.009099c-0.181271 0.580067-0.181271 1.12388-0.217525 1.740201zM454.823658 413.841742a2.392777 2.392777 0 0 0 0 2.646557l16.3869 17.184493v-4.82181L456.74513 413.297929c-0.580067-0.471305-1.413914-0.290034-1.921472 0.543813zM476.974976 433.7453l15.770579-18.525898a2.465286 2.465286 0 0 0 0.217525-2.682811 1.12388 1.12388 0 0 0-1.921472 0l-14.102886 16.568171v4.785555zM453.699777 458.615684a1.051372 1.051372 0 0 0 1.015118 0.616322 1.196389 1.196389 0 0 0 0.906355-0.471305l15.661816-18.380882v-4.930571l-17.438272 20.483625a2.465286 2.465286 0 0 0-0.145017 2.682811z" fill="#477C95" p-id="5512"></path><path d="M476.793705 437.515737H487.778729c5.075589-0.217525 5.619402-0.68883 5.909436-0.942609a2.719065 2.719065 0 0 0 0.580067-2.719065c-0.398796-0.870101-1.12388-1.160135-1.776456-0.580068a108.146291 108.146291 0 0 1-15.5168 0.507559c-0.145017 1.268897-0.145017 2.50154-0.181271 3.734183zM651.53897 524.417065c-0.543813-0.580067-1.413914-0.398796-1.885219 0.43505a2.320269 2.320269 0 0 0 0 2.646557l16.89446 17.728306v-4.858063zM672.131358 551.063905l14.284157 15.009241a1.160135 1.160135 0 0 0 0.833846 0.326288 1.450168 1.450168 0 0 0 1.123881-0.761339 2.320269 2.320269 0 0 0-0.217526-2.646557l-13.559072-14.211648h-2.429032c0 0.543813 0 1.341406-0.036254 2.284015zM687.575649 526.229775a2.429032 2.429032 0 0 0 0.25378-2.682811 1.12388 1.12388 0 0 0-1.921473 0l-13.667835 16.024358v4.82181zM648.747396 566.943247a2.429032 2.429032 0 0 0-0.253779 2.682811 1.268897 1.268897 0 0 0 1.051372 0.652575 1.232643 1.232643 0 0 0 0.870101-0.507558l16.278137-19.105966v-4.821809zM672.167612 548.562365h10.404957c5.075589-0.181271 5.655656-0.68883 5.909435-0.906355a2.537794 2.537794 0 0 0 0.580067-2.719065c-0.362542-0.833847-1.087626-1.160135-1.776456-0.543813a104.158329 104.158329 0 0 1-15.118003 0.471304zM318.761629 671.319101c0-1.051372-0.543813-1.993981-1.413914-1.740202l-17.510781 1.848964-3.262878 3.625421 0.217525 0.507559 20.628642-2.175253c0.725084-0.108763 1.341406-1.051372 1.341406-2.066489zM270.108487 674.545725c-0.761338 0-1.341406 0.978864-1.341406 2.030235s0.616321 1.776456 1.341406 1.740202l20.628642-2.175252c-0.507559-1.160135-1.015118-2.392777-1.522677-3.625421zM287.619267 707.935847c0 1.051372 0.326288 2.030235 1.051372 2.175252H288.779402c0.652576 0 1.232643-0.68883 1.37766-1.595185l3.62542-25.160417q-1.051372-2.247761-2.06649-4.56803zM299.873188 643.54838c0-1.015118-0.326288-1.993981-1.051371-2.138998s-1.486422 0.580067-1.63144 1.631439l-3.62542 24.797876c0.543813 1.341406 1.087626 2.719065 1.631439 4.024217l0.652576-0.68883z" fill="#477C95" p-id="5513"></path><path d="M310.531925 658.231333a2.211506 2.211506 0 0 0-0.797593-2.50154c-0.68883-0.290034-1.450168 0-1.703948 1.160134a177.645601 177.645601 0 0 1-12.217666 14.284157l-0.652576 0.68883c0.471305 1.087626 0.942609 2.102744 1.413914 3.154116l3.262878-3.625421c10.187431-11.238803 10.69499-12.616463 10.694991-13.160276zM328.151468 559.837423a1.413914 1.413914 0 0 0 1.232643-1.087627 2.175252 2.175252 0 0 0-0.580068-2.50154l-15.553053-9.861143-2.320269 0.616321c0 0.797592 0 1.558931 0.181271 2.320269l16.423154 10.368703a1.268897 1.268897 0 0 0 0.616322 0.145017zM286.821675 529.673925c-0.652576-0.43505-1.486422 0-1.848965 0.942609a2.320269 2.320269 0 0 0 0.580068 2.537794l19.686033 12.435192c0-1.486422-0.253779-3.009099-0.362542-4.495521zM305.202556 546.677146v-0.43505-0.580067l-14.900477 25.885502a2.465286 2.465286 0 0 0 0.181271 2.682811 1.160135 1.160135 0 0 0 0.833846 0.362542 1.37766 1.37766 0 0 0 1.087626-0.797593l13.232785-22.985165-0.326288-3.625421s-0.108763-0.326288-0.108763-0.507559zM322.604575 518.435121a1.12388 1.12388 0 0 0-1.921473 0.398797l-10.477465 18.127102c0 1.776456 0.217525 3.62542 0.362542 5.293113l12.181412-21.244963a2.320269 2.320269 0 0 0-0.145016-2.574049zM326.846316 541.420287a2.682811 2.682811 0 0 0 0-2.791574 1.051372 1.051372 0 0 0-1.848964 0 105.318463 105.318463 0 0 1-14.501682 4.749301c0 1.232643 0 2.465286 0.290034 3.62542l2.320269-0.616321c12.652717-3.552912 13.414056-4.56803 13.740343-4.966826zM305.347573 547.075943v-0.833847 0.43505c0 0.145017-0.036254 0.253779 0 0.398797zM598.317798 764.021101a1.087626 1.087626 0 0 0-1.885218-0.253779 2.429032 2.429032 0 0 0-0.290034 2.682811l12.217667 22.042556c0.290034-1.595185 0.616321-3.117862 0.906355-4.713047zM625.145909 817.604815a1.268897 1.268897 0 0 0 0.870101-0.43505 2.537794 2.537794 0 0 0 0.290034-2.682812l-10.368703-18.707169-3.226624-1.196389c0 0.43505 0 0.870101-0.253779 1.305152l11.637599 21.027438a1.196389 1.196389 0 0 0 1.051372 0.68883zM588.456655 808.468756a1.776456 1.776456 0 0 0 0.580067-0.181271l17.873323-12.362684c0.326288-1.558931 0.616321-3.19037 0.906355-4.785555l-19.867304 13.704089a1.993981 1.993981 0 0 0-0.507559 0.797593 2.574049 2.574049 0 0 0-0.217525 0.906355 2.138998 2.138998 0 0 0 0 0.833846 1.305151 1.305151 0 0 0 1.232643 1.087627zM632.324242 778.341512a2.320269 2.320269 0 0 0 0.68883-2.537795c-0.326288-0.978864-1.087626-1.341406-1.812711-0.833846l-16.930713 11.746362c-0.253779 1.413914-0.543813 2.791574-0.833847 4.169233l0.471305 0.181271z" fill="#477C95" p-id="5514"></path><path d="M628.843838 799.695238a0.978864 0.978864 0 0 0 0.471305 0 2.429032 2.429032 0 0 0 1.087626-2.465286c-0.217525-0.978864-0.870101-1.558931-1.595185-1.196389a104.557125 104.557125 0 0 1-14.900478-4.930571l-0.471305-0.181271c-0.253779 1.232643-0.471305 2.50154-0.725084 3.62542l3.226624 1.196389a48.399363 48.399363 0 0 0 12.906497 3.951708zM608.396467 308.487024l-12.942751-19.903558a1.12388 1.12388 0 0 0-1.921473 0 2.50154 2.50154 0 0 0 0 2.682811l14.501682 22.187573h0.181271zM625.073401 339.085573a1.522677 1.522677 0 0 0 0.942609-0.543813 2.574049 2.574049 0 0 0 0-2.682812l-11.38382-17.547034-1.993981-0.471305c0 0.942609-0.181271 1.885219-0.25378 2.864082l11.528837 17.76456a1.268897 1.268897 0 0 0 1.160135 0.616322zM630.837819 296.704408c-0.362542-0.870101-1.196389-1.196389-1.885218-0.616322l-15.299274 12.507701c0 1.522677-0.253779 3.081607-0.398797 4.640538l17.003222-13.88536a2.537794 2.537794 0 0 0 0.580067-2.646557zM607.417603 314.39646a2.247761 2.247761 0 0 1 0.507559-1.015118h-0.181271l-20.556134 16.749442a2.50154 2.50154 0 0 0-0.580067 2.610303 1.341406 1.341406 0 0 0 1.196389 0.942609 1.305151 1.305151 0 0 0 0.652576-0.290033l19.033457-15.5168v-1.957727a2.247761 2.247761 0 0 1-0.072509-1.522676z" fill="#477C95" p-id="5515"></path><path d="M627.647449 320.922216a2.972845 2.972845 0 0 0 0.761339 0 2.465286 2.465286 0 0 0 0.906355-2.537794c-0.253779-0.978864-0.906355-1.450168-1.631439-1.051372a73.994831 73.994831 0 0 1-14.501682-3.19037c0 1.268897-0.253779 2.537794-0.398796 3.842946l1.993981 0.471304a58.260506 58.260506 0 0 0 12.870242 2.465286zM607.417603 314.39646a2.247761 2.247761 0 0 0 0.290034 1.55893l0.217525-2.574048a2.247761 2.247761 0 0 0-0.507559 1.015118zM470.050423 677.26479l17.148239 14.719207a1.160135 1.160135 0 0 0 0.725084 0.25378 1.522677 1.522677 0 0 0 1.160135-0.94261 2.247761 2.247761 0 0 0-0.362542-2.574048l-18.380882-15.770579v0.217525c-0.290034 1.341406-0.290034 2.719065-0.290034 4.096725zM447.717834 655.802301a2.356523 2.356523 0 0 0 0.362542 2.610303l14.501681 12.435192 2.284015-0.253779v-2.284015l-15.299274-13.124022c-0.580067-0.543813-1.268897-0.290034-1.848964 0.616321zM450.980712 697.277111a1.12388 1.12388 0 0 0 0.942609 0.507559 1.305151 1.305151 0 0 0 0.94261-0.616322l11.601345-16.060612 0.217525-5.474385-13.667835 18.960949a2.392777 2.392777 0 0 0-0.036254 2.682811zM470.521728 671.899168a2.356523 2.356523 0 0 1-0.290034 1.12388v-0.217525l16.966968-23.492724a2.356523 2.356523 0 0 0 0-2.646557 1.160135 1.160135 0 0 0-1.957727 0l-15.009241 20.846167v3.625421a2.392777 2.392777 0 0 1 0.290034 0.761338z" fill="#477C95" p-id="5516"></path><path d="M448.769205 673.566861a2.574049 2.574049 0 0 0-0.43505 2.75532 1.268897 1.268897 0 0 0 1.051372 0.761338 1.12388 1.12388 0 0 0 0.725084-0.398796 96.726217 96.726217 0 0 1 14.501682-2.284015v-3.806691l-2.284015 0.253779c-12.362684 1.486422-13.232785 2.356523-13.559073 2.719065zM470.521728 671.899168a2.392777 2.392777 0 0 0-0.217525-0.725084v1.848964a2.356523 2.356523 0 0 0 0.217525-1.12388zM643.055486 643.294601a1.37766 1.37766 0 0 0 1.123881-0.761338 2.392777 2.392777 0 0 0-0.217526-2.646557l-16.060612-16.749443c0 1.558931 0 3.117862-0.181271 4.713047l14.501682 15.118003a0.906355 0.906355 0 0 0 0.833846 0.326288zM622.644369 617.662878l-15.371782-15.843087c-0.580067-0.616321-1.450168-0.43505-1.921473 0.435051a2.320269 2.320269 0 0 0 0.217525 2.646556l13.595327 14.175394h3.62542c-0.145017-0.580067-0.145017-0.978864-0.145017-1.413914zM645.230738 597.75932a1.12388 1.12388 0 0 0-1.921472 0l-15.118004 17.837069c0 1.667693 0 3.371641-0.181271 5.039334l16.966968-20.012321a2.429032 2.429032 0 0 0 0.253779-2.864082zM621.991794 622.738467l-15.770579 18.562153a2.429032 2.429032 0 0 0-0.217526 2.646556 1.232643 1.232643 0 0 0 1.051372 0.652576 1.413914 1.413914 0 0 0 0.870101-0.471304l14.501682-16.966968v-4.459267z" fill="#477C95" p-id="5517"></path><path d="M622.608115 618.931776h-3.62542c-12.616463 0-13.522818 0.761338-13.885361 1.087626a2.50154 2.50154 0 0 0-0.580067 2.682811c0.362542 0.870101 1.12388 1.196389 1.740202 0.616321a96.14615 96.14615 0 0 1 15.553053-0.543813h0.507559c0.217525-1.305151 0.253779-2.610303 0.290034-3.842945zM502.062886 254.830802c0 1.486422 0.253779 3.045353 0.362542 4.531775l13.377801 11.492583 3.262879 2.791574a1.087626 1.087626 0 0 0 0.688829 0.253779 1.413914 1.413914 0 0 0 1.051372-0.906355 2.320269 2.320269 0 0 0-0.362542-2.610302l-6.199469-5.293114-12.145158-10.477465zM479.585279 237.501292a2.356523 2.356523 0 0 0 0.362542 2.610303l14.501682 12.398938 2.030235-0.217525c0-0.942609 0-1.921473-0.253779-2.827828l-14.501682-12.652718c-0.797592-0.507559-1.703948-0.217525-2.138998 0.68883z" fill="#477C95" p-id="5518"></path><path d="M501.881615 252.220499a1.885219 1.885219 0 0 1 0.507559 1.341406 2.392777 2.392777 0 0 1-0.326288 1.160134v-0.217525l4.531775-6.271977 12.398938-17.184493a2.465286 2.465286 0 0 0 0-2.682811 1.12388 1.12388 0 0 0-1.81271 0.036254l-12.32643 17.07573-3.154115 4.676793c0.036254 0.725084 0.108763 1.37766 0.181271 2.066489zM482.811903 278.939848a1.305151 1.305151 0 0 0 0.978864 0.507559 1.196389 1.196389 0 0 0 0.942609-0.616322l12.435192-17.220747c0-1.558931-0.217525-3.154116-0.362542-4.640538l-13.921614 19.287237a2.465286 2.465286 0 0 0-0.072509 2.682811zM480.600397 255.265852a2.574049 2.574049 0 0 0-0.398796 2.719066 1.232643 1.232643 0 0 0 1.051371 0.761338 1.12388 1.12388 0 0 0 0.761339-0.398796 103.759533 103.759533 0 0 1 14.719207-2.284015c0-1.305151 0-2.537794-0.290034-3.625421l-2.030235 0.217526c-12.616463 1.341406-13.486564 2.211506-13.812852 2.610302z" fill="#477C95" p-id="5519"></path><path d="M502.389174 253.561905a1.885219 1.885219 0 0 0-0.507559-1.341406v2.50154a2.392777 2.392777 0 0 0 0.507559-1.160134zM361.034031 685.45824l-18.127102 11.528837a2.320269 2.320269 0 0 0-0.761338 2.537795 1.305151 1.305151 0 0 0 1.196388 1.087626 1.196389 1.196389 0 0 0 0.580068-0.181271l20.121083-12.688972v-0.507559c-1.160135-0.543813-2.06649-1.160135-3.009099-1.776456zM388.44221 670.231475c-0.290034-0.942609-1.051372-1.341406-1.776456-0.906356l-18.997204 11.963888c1.160135 0.652576 2.320269 1.341406 3.625421 1.885219l16.531917-10.404957a2.356523 2.356523 0 0 0 0.616322-2.537794zM360.889014 649.312799a2.030235 2.030235 0 0 0-1.12388 2.24776l3.045353 26.683095c0.978864 0.68883 1.993981 1.413914 3.009099 2.030235l-3.371641-29.510922c-0.108763-1.051372-0.833847-1.81271-1.558931-1.450168z" fill="#477C95" p-id="5520"></path><path d="M363.825605 687.234696v0.507559l3.19037 27.951992c0 0.870101 0.652576 1.486422 1.305151 1.450168H368.538651a2.138998 2.138998 0 0 0 1.160135-2.284015l-2.900336-26.030519c-0.978864-0.398796-1.885219-0.978864-2.972845-1.595185zM279.715851 475.691414a1.37766 1.37766 0 0 0 1.160134-0.906355 2.320269 2.320269 0 0 0-0.362542-2.610302l-17.728306-15.118004v4.495522l16.314392 13.88536a0.942609 0.942609 0 0 0 0.616322 0.253779zM241.322649 438.675872c-0.580067-0.543813-1.450168-0.253779-1.885219 0.652576a2.356523 2.356523 0 0 0 0.362542 2.610302l17.510781 14.900478v-4.459267zM241.322649 481.274562a2.429032 2.429032 0 0 0 0 2.682811 0.978864 0.978864 0 0 0 0.942609 0.507559 1.232643 1.232643 0 0 0 0.978863-0.580067l14.030377-19.504762v-5.329368zM277.576853 433.346504a1.12388 1.12388 0 0 0-1.957727 0l-12.688972 17.692051v5.401877l14.719207-20.483625a2.537794 2.537794 0 0 0-0.072508-2.610303zM434.920099 543.450522l17.003222 14.284157a0.942609 0.942609 0 0 0 0.725084 0.253779 1.37766 1.37766 0 0 0 1.160135-0.906355 2.320269 2.320269 0 0 0-0.362542-2.610303l-18.127102-15.299274-0.290034 0.435051c-0.072508 1.268897-0.072508 2.574049-0.108763 3.842945zM429.626986 534.350717l-11.130041-9.498602-4.423013-3.62542c-0.616321-0.507559-1.450168-0.217525-1.885219 0.652576a2.320269 2.320269 0 0 0 0.362542 2.610302l5.981944 5.075589 10.876261 9.426093c0.181271-1.631439 0.217525-3.117862 0.217526-4.640538zM429.518223 542.036608l-11.202549 15.553054-4.277996 5.981944a2.429032 2.429032 0 0 0 0 2.682811 1.015118 1.015118 0 0 0 0.942609 0.507559 1.305151 1.305151 0 0 0 0.978864-0.580068l2.24776-3.154115 11.238804-15.589308c0.036254-1.885219 0.036254-3.62542 0.072508-5.401877zM434.992608 539.607577l0.290033-0.435051 14.972987-20.737405a2.356523 2.356523 0 0 0 0-2.646557 1.12388 1.12388 0 0 0-1.921473 0l-13.305293 18.525899c0 1.740202 0 3.516658-0.036254 5.293114zM567.03042 198.781802a1.12388 1.12388 0 0 0-1.921473 0.290034 2.356523 2.356523 0 0 0 0 2.646557l15.661816 19.069711v-5.00308zM599.622949 243.664507a1.087626 1.087626 0 0 0 0.906356 0.43505c0.362542 0 0.725084-0.217525 1.015117-0.688829a2.356523 2.356523 0 0 0 0-2.646557l-15.226765-18.562153v5.00308zM562.099848 241.126713a2.429032 2.429032 0 0 0-0.362542 2.646557 1.12388 1.12388 0 0 0 1.087626 0.761338 1.268897 1.268897 0 0 0 0.833847-0.398796l17.003222-17.438273v-4.713046zM602.704557 204.074916a2.429032 2.429032 0 0 0 0.362542-2.646557 1.12388 1.12388 0 0 0-1.885219-0.362542l-14.755461 15.154257v4.713047zM491.041608 757.71287a2.284015 2.284015 0 0 0 0.362542 2.574048l18.127102 15.335528v-4.531775l-16.495663-14.066631c-0.725084-0.362542-1.558931-0.108763-1.993981 0.68883zM514.751857 780.335493l12.942751 10.876261 2.900337 2.429032a0.942609 0.942609 0 0 0 0.725084 0.253779 1.413914 1.413914 0 0 0 1.160134-0.906355 2.320269 2.320269 0 0 0-0.362542-2.610302L527.585846 786.716233l-12.797735-10.876261c0 1.450168-0.036254 2.972845-0.036254 4.495521zM492.854318 802.341795a1.051372 1.051372 0 0 0 0.942609 0.471305 1.341406 1.341406 0 0 0 0.978864-0.580068l14.501681-20.374862v-5.25686l-16.531917 23.02142a2.465286 2.465286 0 0 0 0.108763 2.719065zM514.788111 774.353549l12.362684-17.220747 1.957727-2.719065a2.537794 2.537794 0 0 0 0-2.719065 1.12388 1.12388 0 0 0-1.921473 0l-12.362683 17.220747zM489.627694 554.689326a2.320269 2.320269 0 0 0 0.362542 2.610302l18.127102 15.444291v-4.640538l-16.531917-14.030377c-0.68883-0.761338-1.522677-0.43505-1.957727 0.616322zM529.86986 590.94353a1.522677 1.522677 0 0 0 1.196389-0.942609 2.320269 2.320269 0 0 0-0.362542-2.610303l-17.148238-14.864224v4.640538l15.661816 13.305293a1.051372 1.051372 0 0 0 0.652575 0.471305zM527.730862 548.417348a1.12388 1.12388 0 0 0-1.921472 0l-12.471447 17.365764v5.075589l14.320411-19.794796a2.429032 2.429032 0 0 0 0.072508-2.646557zM491.440404 598.991963a1.051372 1.051372 0 0 0 0.942609 0.543813 1.413914 1.413914 0 0 0 0.978864-0.616321l14.827969-20.664897v-5.075588l-16.640679 23.166436a2.356523 2.356523 0 0 0-0.108763 2.646557zM657.593422 698.799788l-13.522818-20.048575a1.12388 1.12388 0 0 0-1.921473 0 2.429032 2.429032 0 0 0 0 2.682811l14.501682 21.752522 0.290033-0.217525zM673.327747 728.020676a1.087626 1.087626 0 0 0 0.978863 0.507559 1.196389 1.196389 0 0 0 0.94261-0.543813 2.429032 2.429032 0 0 0 0-2.646557l-13.051514-19.686033-0.652576 4.749301zM679.092165 688.829881a2.429032 2.429032 0 0 0 0.543813-2.610302 1.12388 1.12388 0 0 0-1.848964-0.616322l-14.501682 12.32643c-0.217525 1.631439-0.43505 3.262878-0.616321 4.858063zM657.049609 703.041529l-0.290034 0.217526-20.374862 17.184493a2.465286 2.465286 0 0 0-0.580068 2.646556 1.37766 1.37766 0 0 0 1.160135 0.906356 1.341406 1.341406 0 0 0 0.68883-0.326288l18.743423-15.770579c0.253779-1.631439 0.43505-3.262878 0.652576-4.858064zM236.392077 565.094282a1.776456 1.776456 0 0 1 0 0.616322 2.537794 2.537794 0 0 0 0-0.616322zM234.651875 563.752877a1.087626 1.087626 0 0 1 1.051372 0l-1.305151-0.94261-10.876262-8.664755c-0.616321-0.507559-1.486422 0-1.885218 0.725085a2.320269 2.320269 0 0 0 0.43505 2.610302l9.679873 7.685892zM236.138297 566.471942a1.776456 1.776456 0 0 1-0.68883 0.833847l-4.31425 2.175252-9.788635 17.220747a2.392777 2.392777 0 0 0 0.181271 2.646557 0.978864 0.978864 0 0 0 0.833847 0.326288 1.268897 1.268897 0 0 0 1.087626-0.761339l11.710108-20.664896 0.942609-1.595185a0.253779 0.253779 0 0 1 0.036254-0.181271zM235.775755 563.861639s0 0.326288 0.25378 0.471305-0.181271-0.362542-0.25378-0.471305z" fill="#477C95" p-id="5521"></path><path d="M235.449467 567.305789a1.776456 1.776456 0 0 0 0.68883-0.833847 2.211506 2.211506 0 0 0 0-0.870101 1.776456 1.776456 0 0 0 0-0.616321 1.522677 1.522677 0 0 0-0.398796-0.616322s0-0.362542-0.253779-0.471305a1.087626 1.087626 0 0 0-1.051372 0l-2.864082 1.413914-9.679873 4.858064a2.284015 2.284015 0 0 0-0.906355 2.429031c0.181271 0.797592 0.68883 1.305151 1.268897 1.268898h0.435051l8.229704-4.13298zM423.536279 285.320588h-0.326288a1.268897 1.268897 0 0 1-0.616321 0l-3.987963-2.537795-15.26302 3.625421a2.030235 2.030235 0 0 0-1.196388 2.175252c0 0.942609 0.652576 1.595185 1.305151 1.595185h0.217525L420.164638 286.408214l3.226624-0.797593s0.072508-0.290034 0.145017-0.290033zM423.862567 281.840184a1.885219 1.885219 0 0 1 0.616322 1.703948v-0.543813l-1.196389-6.598266-2.247761-12.543954c0-1.015118-0.906355-1.595185-1.667693-1.268897a2.211506 2.211506 0 0 0-0.978864 2.392777l2.75532 15.190512zM424.370126 284.522995a1.558931 1.558931 0 0 1 0 0.25378s-0.036254-0.181271 0-0.25378z" fill="#477C95" p-id="5522"></path><path d="M422.59367 285.320588a1.268897 1.268897 0 0 0 0.616321 0h0.326288a1.667693 1.667693 0 0 0 0.68883-0.652576 1.558931 1.558931 0 0 0 0-0.253779 1.957727 1.957727 0 0 0 0-0.797593 1.885219 1.885219 0 0 0-0.616321-1.703947l-2.646557-1.667694L412.043697 274.553089c-0.68883-0.398796-1.486422 0-1.848965 0.978864a2.175252 2.175252 0 0 0 0.616322 2.50154L418.605707 282.782793zM347.148671 453.177554a1.776456 1.776456 0 0 1 0.652576-0.94261l4.132979-2.791573 0.652575-1.37766 7.794654-17.07573a2.247761 2.247761 0 0 0-0.398796-2.610303c-0.616321-0.507559-1.450168 0-1.885218 0.725084l-5.075589 11.093786-5.836927 12.797735s0 0.181271-0.036254 0.181271zM348.852618 455.570331a1.087626 1.087626 0 0 1-0.580067 0 0.978864 0.978864 0 0 1-0.616321-0.217525l4.31425 2.610303 8.628501 5.184351a1.051372 1.051372 0 0 0 0.580067 0 1.631439 1.631439 0 0 0 1.268897-1.160135 2.102744 2.102744 0 0 0-0.652576-2.465286l-9.607364-5.800672-0.652575-0.398797zM347.003654 454.482705a1.993981 1.993981 0 0 1 0-0.652576 2.75532 2.75532 0 0 0 0 0.652576z" fill="#477C95" p-id="5523"></path><path d="M347.801247 452.162436a1.776456 1.776456 0 0 0-0.652576 0.942609 2.102744 2.102744 0 0 0 0 0.833847 1.993981 1.993981 0 0 0 0 0.652576 1.450168 1.450168 0 0 0 0.580067 0.833846 0.978864 0.978864 0 0 0 0.616322 0.217525 1.087626 1.087626 0 0 0 0.580067 0l2.755319-1.848964 0.68883-0.471305 8.628501-5.764418a2.392777 2.392777 0 0 0 0.725084-2.537794c-0.326288-0.942609-1.12388-1.305151-1.81271-0.870101l-7.250841 4.930571-0.580067 0.362543zM687.575649 641.699416h-0.217525a1.051372 1.051372 0 0 1-0.870101-0.398796l4.676792 5.256859 6.235723 6.997062a0.978864 0.978864 0 0 0 0.833847 0.362542 1.341406 1.341406 0 0 0 1.087626-0.725084 2.392777 2.392777 0 0 0 0-2.682812l-7.468366-8.410975-1.196389-1.305151zM686.37926 638.654063a1.450168 1.450168 0 0 1 0.797593-0.68883l4.459267-1.268897 0.761338-1.015118 10.658736-14.102886a2.429032 2.429032 0 0 0 0-2.682811 1.12388 1.12388 0 0 0-1.921473 0l-8.265958 10.876262-6.525757 8.664754s0.072508 0.181271 0.036254 0.217526zM686.016718 640.031722a3.987962 3.987962 0 0 1 0-0.580067 3.371641 3.371641 0 0 0 0 0.471305v0.108762z" fill="#477C95" p-id="5524"></path><path d="M687.176853 638.073995a1.450168 1.450168 0 0 0-0.797593 0.68883 2.936591 2.936591 0 0 0-0.253779 0.797593 3.987962 3.987962 0 0 0 0 0.580067v0.181271a2.138998 2.138998 0 0 0 0.471305 1.087626 1.051372 1.051372 0 0 0 0.8701 0.398796h0.108763l2.936591-0.833846 1.413914-0.362542 8.6285-2.465286a2.030235 2.030235 0 0 0 1.160135-2.211507c0-1.051372-0.833847-1.667693-1.558931-1.486422l-7.794654 2.211506-0.68883 0.181271zM526.389457 658.340096a1.703948 1.703948 0 0 1 0.652576-0.906356l4.132979-2.791573 8.447229-18.489644a2.284015 2.284015 0 0 0-0.398796-2.574049c-0.616321-0.543813-1.486422-0.217525-1.885218 0.68883l-7.722146 16.966968-3.19037 6.960807s0 0.108763-0.036254 0.145017zM528.05715 660.805381a1.051372 1.051372 0 0 1-0.580067 0.217526 1.268897 1.268897 0 0 1-0.616322-0.217526l2.175253 1.268898 10.876261 6.489502a0.833847 0.833847 0 0 0 0.580067 0 1.558931 1.558931 0 0 0 1.268897-1.160134 2.138998 2.138998 0 0 0-0.652575-2.465286l-10.296194-6.163215zM526.208186 659.826518a2.392777 2.392777 0 0 1 0-0.725084 1.631439 1.631439 0 0 0 0 0.725084z" fill="#477C95" p-id="5525"></path><path d="M527.042033 657.43374a1.703948 1.703948 0 0 0-0.652576 0.906356 2.827828 2.827828 0 0 0 0 0.797592 2.392777 2.392777 0 0 0 0 0.725084 1.558931 1.558931 0 0 0 0.580067 0.870101 1.268897 1.268897 0 0 0 0.616322 0.217525 1.051372 1.051372 0 0 0 0.580067-0.217525l2.719065-1.81271 9.244822-6.344486a2.247761 2.247761 0 0 0 0.725084-2.50154c-0.253779-0.978864-1.087626-1.341406-1.776456-0.870101l-7.903416 5.293114zM600.130508 702.715242a1.81271 1.81271 0 0 1 0 0.471304v-0.471304zM599.622949 703.947885a1.450168 1.450168 0 0 1-0.833846 0.507558l-4.531776 0.326288-12.833988 12.725226a2.50154 2.50154 0 0 0-0.398796 2.646557 1.268897 1.268897 0 0 0 1.12388 0.761338 1.305151 1.305151 0 0 0 0.797593-0.362542l13.776597-13.667835 2.827828-2.791574zM598.825357 700.648752a1.015118 1.015118 0 0 1 0.906355 0.471305l-3.335387-5.184352-5.945689-9.172313a1.051372 1.051372 0 0 0-1.885219 0 2.392777 2.392777 0 0 0 0 2.682811l7.250841 11.492583z" fill="#477C95" p-id="5526"></path><path d="M598.789103 704.455443a1.450168 1.450168 0 0 0 0.833846-0.507558 2.320269 2.320269 0 0 0 0.362543-0.870101 1.81271 1.81271 0 0 0 0-0.471305 2.102744 2.102744 0 0 0-0.435051-1.341406 1.015118 1.015118 0 0 0-0.906355-0.471304l-3.009099 0.253779-10.114923 0.725084c-0.761338 0-1.341406 0.906355-1.341406 1.993982s0.580067 1.81271 1.305152 1.776456l8.555992-0.616322zM641.170268 220.171783a1.776456 1.776456 0 0 1 0.652575-0.94261l4.096725-2.755319 8.483484-18.489644a2.320269 2.320269 0 0 0-0.398796-2.610303c-0.616321-0.507559-1.486422 0-1.885219 0.725084l-8.229704 18.127102-2.719065 5.909435v0.036255zM642.837961 222.637069a1.413914 1.413914 0 0 1-0.543813 0.217525 1.015118 1.015118 0 0 1-0.616322-0.25378l1.921473 1.123881 10.876262 6.634519a1.232643 1.232643 0 0 0 0.580067 0 1.558931 1.558931 0 0 0 1.268897-1.160135 2.102744 2.102744 0 0 0-0.616321-2.465285l-10.296195-6.199469zM641.025251 221.549442a2.030235 2.030235 0 0 1 0-0.471304s-0.036254 0.326288 0 0.471304z" fill="#477C95" p-id="5527"></path><path d="M641.822843 219.229173a1.776456 1.776456 0 0 0-0.652575 0.94261 2.284015 2.284015 0 0 0 0 0.978863 2.030235 2.030235 0 0 0 0 0.471305 1.522677 1.522677 0 0 0 0.616321 0.833846 1.015118 1.015118 0 0 0 0.616322 0.25378 1.413914 1.413914 0 0 0 0.543813-0.217525l2.755319-1.848965 9.244822-6.090706a2.356523 2.356523 0 0 0 0.725084-2.537794c-0.290034-0.942609-1.087626-1.341406-1.776456-0.833847l-7.93967 5.293114zM348.78011 600.188352a1.305151 1.305151 0 0 0 1.196389 0.978863l3.154116-0.543813 11.275057-1.885218a1.993981 1.993981 0 0 0 1.268897-2.102744c0-1.051372-0.761338-1.740202-1.450168-1.667693l-11.166295 1.885218 8.302213-13.812852a2.392777 2.392777 0 0 0 0-2.646557c-0.580067-0.652576-1.413914-0.471305-1.921473 0.326288l-7.06957 11.782617-3.407895 5.69191a2.537794 2.537794 0 0 0-0.181271 1.993981zM331.051804 301.308692a1.051372 1.051372 0 0 0 0.978864 0.580067 1.015118 1.015118 0 0 0 0.471304 0l2.900337-1.486422 10.876261-5.510639a2.247761 2.247761 0 0 0 0.906355-2.429032c-0.217525-0.978864-0.978864-1.450168-1.703948-1.12388l-10.658736 5.293113 5.873181-15.879341a2.284015 2.284015 0 0 0-0.580067-2.537794c-0.68883-0.398796-1.486422 0-1.848964 0.942609L332.284447 295.217985l-1.486422 3.987963a2.50154 2.50154 0 0 0 0.253779 2.102744zM679.853504 512.308161a1.268897 1.268897 0 0 0 1.015117 0.616321 1.015118 1.015118 0 0 0 0.435051 0l3.8792-1.921473 9.969906-5.039334a2.320269 2.320269 0 0 0 0.906355-2.465286c-0.217525-0.978864-1.015118-1.450168-1.703948-1.12388l-10.876261 5.401876 5.836927-15.879341a2.175252 2.175252 0 0 0-0.580067-2.537795c-0.652576-0.398796-1.486422 0-1.812711 0.978864l-5.365622 14.501682-2.030235 5.510639a2.610303 2.610303 0 0 0 0.326288 1.957727zM418.098149 430.409913a1.522677 1.522677 0 0 0-1.123881-1.341405l-1.921473-0.217526-12.398937-1.55893c-0.68883 0-1.413914 0.652576-1.522677 1.703947a1.740202 1.740202 0 0 0 1.12388 2.06649l11.057533 1.413914-10.078669 11.238803a2.574049 2.574049 0 0 0-0.25378 2.682811 1.087626 1.087626 0 0 0 1.051372 0.652576 1.051372 1.051372 0 0 0 0.833847-0.43505L415.306575 435.050451l2.247761-2.537794a2.392777 2.392777 0 0 0 0.543813-2.102744zM518.159752 374.469676a1.160135 1.160135 0 0 0 1.123881 0.833847h0.253779l2.284015-0.652576 12.000142-3.335387a2.06649 2.06649 0 0 0 1.196388-2.24776c0-1.015118-0.833847-1.667693-1.595185-1.486423l-10.876261 3.081608 7.540875-14.501682a2.320269 2.320269 0 0 0-0.290034-2.610303c-0.616321-0.580067-1.450168-0.326288-1.921473 0.543813l-6.054452 11.746362-3.407895 6.63452a2.50154 2.50154 0 0 0-0.25378 1.993981zM620.940422 388.173765a1.631439 1.631439 0 0 0-1.268898 1.160135 2.574049 2.574049 0 0 0 0.217526 2.102744l3.117861 4.495521 6.598265 9.534856a1.232643 1.232643 0 0 0 0.978864 0.580067 1.413914 1.413914 0 0 0 0.942609-0.580067 2.465286 2.465286 0 0 0 0-2.719066l-7.50462-10.876261L636.819763 391.545406a1.81271 1.81271 0 0 0 1.37766-1.921473c0-1.051372-0.507559-1.885219-1.268897-1.848964l-12.217667 0.253779h-3.625421zM241.395157 351.04946a1.232643 1.232643 0 0 1-0.543813 0.25378h-0.362542l-4.31425-1.522677-14.755462 7.250841a2.175252 2.175252 0 0 0-0.906355 2.429031 1.341406 1.341406 0 0 0 1.268897 1.232643h0.398797l17.111984-8.338467 1.957727-0.978863s0.072508-0.326288 0.145017-0.326288zM241.286394 347.569056a1.486422 1.486422 0 0 1 0.797593 0.833847l-1.051372-2.392777-8.809772-19.939813a1.160135 1.160135 0 0 0-1.885218-0.507559 2.429032 2.429032 0 0 0-0.471305 2.646557l8.048433 18.127103zM242.120241 348.584174a2.465286 2.465286 0 0 1 0 1.268897 2.50154 2.50154 0 0 0 0-1.268897zM242.156495 350.034342a1.703948 1.703948 0 0 1-0.181271 0.362542s0.145017-0.253779 0.181271-0.362542z" fill="#477C95" p-id="5528"></path><path d="M240.488802 351.266985h0.362542a1.232643 1.232643 0 0 0 0.543813-0.253779 4.205488 4.205488 0 0 0 0.761338-1.160135 2.465286 2.465286 0 0 0 0-1.268897 0.326288 0.326288 0 0 1 0-0.181271 1.486422 1.486422 0 0 0-0.797592-0.833847L238.023516 346.372668l-9.13606-3.19037c-0.68883-0.253779-1.486422 0.362542-1.703947 1.37766a1.957727 1.957727 0 0 0 0.906355 2.284014l8.19345 2.900337zM563.078712 141.971464l-0.616322-1.37766L553.217568 119.638874a1.12388 1.12388 0 0 0-1.848964-0.543813 2.50154 2.50154 0 0 0-0.471305 2.682811l8.012179 18.127102 3.407895 1.196389a1.341406 1.341406 0 0 1 0.761339 0.870101zM562.389882 144.618021a1.087626 1.087626 0 0 1-0.543813 0.253779h-0.362542L557.060514 143.31287l-14.755461 7.25084a2.247761 2.247761 0 0 0-0.94261 2.429032c0.181271 0.761338 0.68883 1.268897 1.268897 1.232643h0.435051L561.882323 145.016817l0.398796-0.217525s0.072508-0.145017 0.108763-0.181271zM563.187474 143.566649s-0.036254 0.072508 0 0z" fill="#477C95" p-id="5529"></path><path d="M561.846069 145.016817a1.087626 1.087626 0 0 0 0.543813-0.253779 1.486422 1.486422 0 0 0 0.68883-0.906355 2.284015 2.284015 0 0 0 0-1.486423 1.341406 1.341406 0 0 0-0.761339-0.833846l-3.407895-1.196389-9.099805-3.589166c-0.68883-0.253779-1.486422 0.362542-1.703948 1.377659a1.957727 1.957727 0 0 0 0.906355 2.284015l8.19345 2.900337 4.277997 1.522676zM313.069719 757.386582a1.413914 1.413914 0 0 1 1.341405-1.015118h-0.43505l-2.138998 0.906355-11.855125 5.184351a2.175252 2.175252 0 0 0-0.978863 2.392778c0 1.015118 0.906355 1.595185 1.631439 1.232643l11.093786-4.749301zM315.607513 757.71287a2.827828 2.827828 0 0 1 0 1.341405l-1.703947 4.858063 1.776456 10.223686c0.181271 0.833847 0.68883 1.341406 1.305151 1.341406h0.362542a2.211506 2.211506 0 0 0 1.015118-2.392778l-2.211507-12.76148-0.43505-2.465286-0.108763-0.145016zM315.027446 756.480227s0.181271 0.290034 0.290033 0.43505-0.181271-0.362542-0.290033-0.43505z" fill="#477C95" p-id="5530"></path><path d="M315.535005 758.873004a2.827828 2.827828 0 0 0 0-1.341405 1.885219 1.885219 0 0 0-0.362542-0.652576s0-0.326288-0.290034-0.435051h-0.507559a1.413914 1.413914 0 0 0-1.341405 1.015118l-1.305152 3.8792-4.495521 12.906497a2.247761 2.247761 0 0 0 0.616321 2.50154 1.160135 1.160135 0 0 0 0.580068 0 1.631439 1.631439 0 0 0 1.268897-1.160135l4.132979-11.891379zM410.593528 630.09807a0.942609 0.942609 0 0 1-0.181271 0.326288s0.145017-0.217525 0.181271-0.326288zM409.977207 631.149442a1.268897 1.268897 0 0 1-0.725084 0.362542h-0.290034l-3.62542-0.906355-6.888299 5.293114a2.429032 2.429032 0 0 0-0.652576 2.610303 1.305151 1.305151 0 0 0 1.196389 0.942609 0.978864 0.978864 0 0 0 0.652576-0.253779l6.852044-5.25686 3.407895-2.646557s0.036254-0.108763 0.072509-0.145017zM409.614665 627.777801c0.543813 0 0.833847 0.761338 0.942609 1.486423v-0.616322l-0.870101-2.211506-5.764418-15.045495a1.160135 1.160135 0 0 0-1.848965-0.652576 2.392777 2.392777 0 0 0-0.580067 2.574049l5.220605 13.88536z" fill="#477C95" p-id="5531"></path><path d="M408.962089 631.47573h0.290034a1.268897 1.268897 0 0 0 0.725084-0.362542 1.703948 1.703948 0 0 0 0.43505-0.797592 0.942609 0.942609 0 0 0 0.181271-0.326288 4.024217 4.024217 0 0 0 0-0.68883c0-0.725084-0.398796-1.341406-0.942609-1.486422l-2.900336-0.725085-9.861144-2.465285c-0.68883-0.253779-1.450168 0.507559-1.631439 1.522676a1.885219 1.885219 0 0 0 1.015118 2.211507l9.063551 2.24776zM605.423622 569.879837a1.885219 1.885219 0 0 1-0.217525 0.471305s0.181271-0.326288 0.217525-0.471305zM604.807301 570.894955a1.268897 1.268897 0 0 1-0.725084 0.362542h-0.290034l-3.62542-0.906355-6.852045 5.293114a2.429032 2.429032 0 0 0-0.616322 2.574048 1.268897 1.268897 0 0 0 1.196389 0.978864 1.12388 1.12388 0 0 0 0.652576-0.290034l6.888299-5.25686 3.407895-2.610302s-0.072508-0.108763-0.036254-0.145017zM604.444759 567.48706a1.776456 1.776456 0 0 1 0.942609 1.703947v-0.761338l-1.921473-5.039334-4.713046-12.253921a1.160135 1.160135 0 0 0-1.848965-0.652576 2.356523 2.356523 0 0 0-0.543813 2.574048l5.25686 13.70409z" fill="#477C95" p-id="5532"></path><path d="M603.792183 571.257497h0.398796a1.268897 1.268897 0 0 0 0.725084-0.362542 1.957727 1.957727 0 0 0 0.398797-0.652576 1.885219 1.885219 0 0 0 0.217525-0.471304 2.392777 2.392777 0 0 0 0-0.507559 1.776456 1.776456 0 0 0-0.94261-1.703948l-2.900336-0.725084-9.824889-2.429032c-0.761338-0.217525-1.522677 0.507559-1.667694 1.522677a1.885219 1.885219 0 0 0 1.015118 2.211506l9.063551 2.284015zM556.552955 311.786157v0.507559a1.450168 1.450168 0 0 0 0-0.507559zM556.009142 314.070172a1.12388 1.12388 0 0 1-0.725084 0.398796 0.43505 0.43505 0 0 1-0.290034 0l-3.62542-0.906355L544.444051 319.036998a2.429032 2.429032 0 0 0-0.616322 2.574048 1.196389 1.196389 0 0 0 1.160135 0.94261 0.942609 0.942609 0 0 0 0.652575-0.25378l9.607364-7.250841 0.68883-0.543813s0.036254-0.398796 0.072509-0.43505zM556.625463 313.055054a1.051372 1.051372 0 0 1 0 0.290034v-0.290034zM555.6466 310.698531a1.413914 1.413914 0 0 1 0.833846 0.761338l-1.160134-3.045353L549.809673 294.347885c-0.326288-0.906355-1.160135-1.196389-1.81271-0.652576a2.392777 2.392777 0 0 0-0.616322 2.610303l5.25686 13.704089z" fill="#477C95" p-id="5533"></path><path d="M555.284058 314.468968a1.12388 1.12388 0 0 0 0.725084-0.398796 1.740202 1.740202 0 0 0 0.471304-0.797593 1.051372 1.051372 0 0 0 0-0.290033 1.740202 1.740202 0 0 0 0-0.870101v-0.507559a1.413914 1.413914 0 0 0-0.833846-0.761338l-2.900337-0.68883-9.824889-2.50154c-0.725084 0-1.450168 0.507559-1.667693 1.55893a1.848964 1.848964 0 0 0 1.051372 2.175253l9.027296 2.284014 3.625421 0.906356a0.43505 0.43505 0 0 0 0.326288-0.108763z" fill="#477C95" p-id="5534"></path><path d="M686.37926 638.654063l6.525757-8.664755c5.184351-52.749867 3.081607-95.856116-7.830908-118.950044l-3.842946 1.921472a1.015118 1.015118 0 0 1-0.43505 0 1.268897 1.268897 0 0 1-1.015118-0.616321 2.610303 2.610303 0 0 1 0-2.102744l2.030236-5.510639a28.45955 28.45955 0 0 0-9.969907-9.788635c0.326288 15.371783 0.471305 30.163498 0.435051 44.520163l13.667835-16.024359a1.12388 1.12388 0 0 1 1.921473 0 2.429032 2.429032 0 0 1-0.25378 2.682812l-15.371782 18.127102v0.507559a104.158329 104.158329 0 0 0 15.118003-0.471305c0.68883-0.616321 1.413914-0.290034 1.776456 0.543813a2.537794 2.537794 0 0 1-0.580067 2.719065c-0.253779 0.217525-0.833847 0.725084-5.909436 0.906355h-7.975925l13.559073 14.211648a2.392777 2.392777 0 0 1 0.217525 2.646557 1.450168 1.450168 0 0 1-1.12388 0.761339 1.160135 1.160135 0 0 1-0.833847-0.326288l-14.356665-14.682953a1291.701044 1291.701044 0 0 1-8.954788 146.974544l14.501681-12.326429a1.12388 1.12388 0 0 1 1.848965 0.616321 2.429032 2.429032 0 0 1-0.543813 2.610303l-16.531917 13.957869c0 0.978864-0.253779 1.957727-0.398797 2.93659l13.196531 19.686033a2.429032 2.429032 0 0 1 0 2.646557 1.196389 1.196389 0 0 1-0.94261 0.543813 1.087626 1.087626 0 0 1-0.978863-0.507559l-11.818871-17.619543c-12.906497 93.173305-35.420358 148.642238-55.940237 181.561055-1.051372 1.667693-2.102744 3.299133-3.19037 4.858063l0.253779-11.38382c19.83105-32.411259 41.402301-87.01009 53.764985-177.645601l-18.743423 15.770579a1.341406 1.341406 0 0 1-0.68883 0.326288 1.37766 1.37766 0 0 1-1.160135-0.906355 2.465286 2.465286 0 0 1 0.580068-2.646557l20.374862-17.184493-14.501681-21.752522a2.429032 2.429032 0 0 1 0-2.682812 1.12388 1.12388 0 0 1 1.921473 0l13.450309 20.048575a1268.89715 1268.89715 0 0 0 9.099806-148.134678l-16.278138 19.105965a1.232643 1.232643 0 0 1-0.870101 0.507559 1.268897 1.268897 0 0 1-1.051372-0.652575 2.429032 2.429032 0 0 1 0.253779-2.682812l18.127103-21.099946v-0.616322l-16.89446-17.728306a2.320269 2.320269 0 0 1 0-2.646557c0.471305-0.833847 1.341406-1.015118 1.885219-0.43505l15.226766 15.95185c0-14.900478 0-30.308515-0.471305-46.369128l2.465286-0.326287a22.550115 22.550115 0 0 0-9.063551-1.123881 41.329793 41.329793 0 0 0-2.356523 8.229705c-2.719065 16.64068-10.876261 11.130041-11.492583 6.924553a105.46348 105.46348 0 0 0-0.290034-10.876262 62.357231 62.357231 0 0 0-6.054452 3.625421c-4.821809 18.489644-8.846026 46.622907-10.441211 90.20046l-0.652575 18.852186-0.217526 6.126961 15.118004-17.837069a1.12388 1.12388 0 0 1 1.921473 0 2.429032 2.429032 0 0 1-0.25378 2.682811l-16.966968 20.012321v2.682811l15.698071 16.568172a2.392777 2.392777 0 0 1 0.217525 2.646557 1.37766 1.37766 0 0 1-1.12388 0.761338 0.906355 0.906355 0 0 1-0.797593-0.326288l-14.501681-15.118003c-2.030235 55.758966-4.713047 111.481678-13.45031 158.829669l16.930713-11.710108c0.725084-0.507559 1.486422 0 1.81271 0.833846a2.320269 2.320269 0 0 1-0.688829 2.537795l-18.417136 12.688971a104.557125 104.557125 0 0 0 14.900478 4.930572c0.725084-0.362542 1.37766 0.217525 1.595185 1.196389a2.429032 2.429032 0 0 1-1.087626 2.465286 0.978864 0.978864 0 0 1-0.471305 0 48.399363 48.399363 0 0 1-12.906497-3.915454l10.368703 18.707169a2.537794 2.537794 0 0 1-0.290034 2.682811 1.268897 1.268897 0 0 1-0.870101 0.435051 1.196389 1.196389 0 0 1-1.051372-0.68883l-11.637599-21.027439c-5.546893 26.864365-13.232785 50.755886-24.181555 69.861852l-13.559072 9.498601c15.299274-19.432253 25.377943-47.130466 32.193733-79.360453l-17.873322 12.362684a1.776456 1.776456 0 0 1-0.580068 0.181271 1.305151 1.305151 0 0 1-1.196388-1.051372 2.138998 2.138998 0 0 1 0-0.833847c-8.991043 42.852469-24.580351 85.741193-48.181838 64.93128-2.211506-1.957727-4.060471-6.924553-5.583147-14.030377 0-0.725084-1.450168-7.975925-1.595185-8.809772a519.559002 519.559002 0 0 1-4.169234-57.281642l-12.942751-10.876262c0 21.353726 0 42.779961-0.290033 64.097434l-5.365623-1.268898c0-20.374863 0.253779-40.858488 0.290034-61.305859l-14.501682 20.374863a1.341406 1.341406 0 0 1-0.978863 0.580067 1.051372 1.051372 0 0 1-0.94261-0.471305 2.465286 2.465286 0 0 1 0-2.719065l16.531918-23.02142V775.839972l-18.127102-15.335529a2.284015 2.284015 0 0 1-0.362543-2.574048c0.43505-0.942609 1.268897-1.196389 1.885219-0.68883l16.495663 14.066631c0-65.873889-0.362542-131.24022-1.232643-192.981129l-14.827969 20.664896a1.413914 1.413914 0 0 1-0.978864 0.616322 1.051372 1.051372 0 0 1-0.942609-0.543813 2.356523 2.356523 0 0 1 0-2.646557l16.640679-23.166437v-0.616321l-18.127102-15.444291a2.320269 2.320269 0 0 1-0.362542-2.610303c0.43505-0.870101 1.268897-1.196389 1.885219-0.616322l16.531917 14.030378c-1.993981-128.666171-5.909435-240.474137-10.876261-306.311772l-12.435192 17.220747a1.196389 1.196389 0 0 1-0.94261 0.616321 1.305151 1.305151 0 0 1-0.978863-0.507559 2.465286 2.465286 0 0 1 0-2.682811l13.921614-19.287237a7.250841 7.250841 0 0 0 0-0.906355 103.759533 103.759533 0 0 0-14.719207 2.284015 1.12388 1.12388 0 0 1-0.761338 0.398796 1.232643 1.232643 0 0 1-1.051372-0.761338 2.574049 2.574049 0 0 1 0.398796-2.719065c0.362542-0.398796 1.196389-1.268897 13.812852-2.75532l-14.501681-12.398938a2.356523 2.356523 0 0 1-0.362542-2.610302c0.43505-0.906355 1.305151-1.196389 1.921472-0.68883l14.501682 12.652717c-0.507559-6.054452-1.015118-11.565091-1.558931-16.64068a37.34183 37.34183 0 0 0-14.175394-8.991042 47.384245 47.384245 0 0 0-1.595185 6.416994 43.069995 43.069995 0 0 1-1.015117 4.749301c0.290034 74.719915 0 137.765976-0.906355 193.959992l14.102885-16.568171a1.12388 1.12388 0 0 1 1.921473 0 2.465286 2.465286 0 0 1-0.217525 2.682811l-15.770579 18.525899a108.146291 108.146291 0 0 0 15.516799-0.507559c0.652576-0.580067 1.37766-0.290034 1.776456 0.580067a2.719065 2.719065 0 0 1-0.580067 2.719065c-0.290034 0.253779-0.833847 0.725084-5.909435 0.94261h-7.975925l13.559072 14.211648a2.320269 2.320269 0 0 1 0 2.646557 1.305151 1.305151 0 0 1-1.087626 0.797592 1.015118 1.015118 0 0 1-0.833847-0.362542l-14.864223-15.553054c-1.37766 87.227616-3.62542 157.452009-6.344486 228.401487l15.00924-20.846167a1.160135 1.160135 0 0 1 1.957727 0 2.356523 2.356523 0 0 1 0 2.646557l-16.966967 23.492724 18.598407 15.988104a2.247761 2.247761 0 0 1 0.362542 2.574049 1.522677 1.522677 0 0 1-1.160135 0.942609 1.160135 1.160135 0 0 1-0.725084-0.253779L470.050423 677.26479c0 2.574049 0 5.148097-0.253779 7.722146-1.776456 48.761905-3.62542 98.067623-5.111843 153.536555l-5.474385 0.290034c1.558931-55.577695 3.335387-105.137192 5.111843-153.754081v-3.951708l-11.601345 16.060612a1.305151 1.305151 0 0 1-0.94261 0.616322 1.12388 1.12388 0 0 1-0.942609-0.507559 2.392777 2.392777 0 0 1 0-2.682811l13.667835-18.960949v-1.232643a96.726217 96.726217 0 0 0-14.501682 2.284015 1.12388 1.12388 0 0 1-0.725084 0.398796 1.268897 1.268897 0 0 1-1.051372-0.761338 2.574049 2.574049 0 0 1 0.435051-2.75532c0.326288-0.362542 1.196389-1.232643 13.812852-2.719065l-14.501682-12.435192a2.356523 2.356523 0 0 1-0.362542-2.610303c0.43505-0.906355 1.268897-1.160135 1.921473-0.616321l15.299274 13.124022c2.537794-70.840715 4.966826-140.956346 6.344486-227.930183L455.548742 458.760701a1.196389 1.196389 0 0 1-0.906355 0.471305 1.051372 1.051372 0 0 1-1.015118-0.616322 2.465286 2.465286 0 0 1 0.217525-2.682811l17.438272-20.483625v-1.776456l-16.3869-17.184493a2.392777 2.392777 0 0 1 0-2.646557c0.507559-0.833847 1.341406-1.015118 1.921473-0.435051l14.719207 15.444291c0.797592-53.619968 1.160135-113.65693 0.978863-184.171357-4.241742 2.719065-8.737263-1.486422-9.136059-4.966826-0.68883-6.090706 0.870101-10.042415-0.471305-15.299274a36.870526 36.870526 0 0 0-8.447229 4.676792c-6.163215 14.102885-10.296194 51.372207-13.160277 99.554045l15.408037-18.344628a1.12388 1.12388 0 0 1 1.921473 0 2.50154 2.50154 0 0 1-0.217525 2.682812L441.04706 333.828713v1.631439l16.604426 17.111985a2.247761 2.247761 0 0 1 0.217525 2.646557 1.450168 1.450168 0 0 1-1.087626 0.797592 1.341406 1.341406 0 0 1-0.833847-0.362542l-15.154257-15.625562c-3.117862 58.006727-4.604284 129.064967-5.583148 194.250027l13.087768-18.525899a1.12388 1.12388 0 0 1 1.921473 0 2.356523 2.356523 0 0 1 0 2.646557l-14.972987 20.846168 18.127102 15.299274a2.320269 2.320269 0 0 1 0.362542 2.610302 1.37766 1.37766 0 0 1-1.160134 0.906356 0.942609 0.942609 0 0 1-0.725084-0.25378l-16.821951-14.284156c-0.253779 18.779678-0.471305 36.979288-0.68883 54.091272-0.725084 56.882847-1.341406 106.079802-2.791574 131.784033-1.885219 34.006444-3.62542 72.218375-5.546893 112.388033l-5.474385 0.68883c1.776456-40.568455 3.62542-79.106674 5.583148-113.330642 0.290034-4.966826 0.543813-10.876261 0.761338-17.510781-9.172314 9.208568-31.758683 28.640821-60.290742 29.83721a65.257568 65.257568 0 0 1-28.097008-5.00308c-15.371783-6.271977-30.997345-24.544096-44.375146-53.148664l-3.62542 25.160418c0 0.906355-0.725084 1.595185-1.37766 1.595185H288.779402c-0.725084 0-1.196389-1.12388-1.051372-2.175252l4.31425-29.003364c-0.398796-0.870101-0.797592-1.740202-1.160134-2.646556l-20.628642 2.175252c-0.725084 0-1.305151-0.725084-1.341406-1.740202s0.580067-1.957727 1.341406-2.030235l19.142219-2.030236c-19.468508-47.130466-33.100089-117.862418-32.08497-206.105151v-2.030236l-14.030377 19.504762a1.232643 1.232643 0 0 1-0.978864 0.580067 0.978864 0.978864 0 0 1-0.942609-0.507558 2.429032 2.429032 0 0 1 0-2.682812l15.95185-22.223827v-2.066489l-17.510781-14.900478a2.356523 2.356523 0 0 1-0.362542-2.610303c0.43505-0.906355 1.305151-1.196389 1.885219-0.652576l16.13312 13.704089A1306.855302 1306.855302 0 0 1 274.785279 282.782793c-13.051514 11.528837-25.087909 32.628784-33.788918 63.082316l1.051372 2.392777a0.326288 0.326288 0 0 0 0 0.181271 2.50154 2.50154 0 0 1 0 1.268898l-0.181271 0.217525a1.703948 1.703948 0 0 1-0.580068 0.797592l-1.957727 0.978864c-10.25994 39.843371-15.009241 93.970898-9.716126 162.781377q1.921473 24.906638 4.858063 48.326854l1.232643 0.978864v0.398796a1.522677 1.522677 0 0 1 0.398796 0.616322 2.537794 2.537794 0 0 1 0 0.507558 2.211506 2.211506 0 0 1 0 0.870101 0.253779 0.253779 0 0 0 0 0.181271l-0.942609 1.595185c11.746362 89.221597 35.347849 159.083448 76.677642 188.993167l2.138998-0.906355h0.942609s0 0.253779 0.217525 0.398796a1.885219 1.885219 0 0 1 0.362543 0.652576l0.43505 2.465286a82.405806 82.405806 0 0 0 18.634661 8.954788c48.471871 16.314392 62.973553-46.260365 61.269605 40.894743-0.290034 14.030377-0.942609 27.806975-1.776456 41.47481l-0.362542 5.365622v-0.181271 0.290033l-0.507559 7.685892c-2.320269 33.462631-5.293114 66.453956-6.018198 100.967959 0 9.317331-0.580067 19.359745-1.051372 29.945972l14.175394 1.268898 95.45732 8.374721 5.184351 0.43505 16.278138 1.087626 19.105966 1.703948c1.37766-15.408037 4.277996-28.278279 9.969906-37.233068l-1.305151 8.737263a1.81271 1.81271 0 0 0 1.051372 2.138998H546.184252a1.776456 1.776456 0 0 0 1.37766-1.631439l2.06649-13.776597 0.290033-1.957727 0.580068 1.015117 5.546893 9.643619a1.087626 1.087626 0 0 0 1.051372 0.652575 1.232643 1.232643 0 0 0 0.870101-0.471304 2.465286 2.465286 0 0 0 0.253779-2.682812l-5.220605-9.027296 14.501681 5.764418c0.68883 0.253779 1.450168-0.326288 1.703948-1.305151a1.885219 1.885219 0 0 0-0.833847-2.320269L556.33543 960.736414l0.652575-0.435051a184.243866 184.243866 0 0 0 35.130324-23.311453v-0.217526l-0.362542-26.248043c-16.676934 19.395999-34.042698 28.423296-48.798159 31.541157l58.333015-38.320694 16.531917 3.262879a271.906532 271.906532 0 0 0 25.377943-55.686458c2.610303-7.540874 5.075589-15.118003 7.50462-22.695132v-0.580067a8.737263 8.737263 0 0 1 0.290034-0.906355l2.392777-7.722146c0.326288-1.051372 0.616321-2.06649 0.94261-3.081607v-0.471305A1021.027155 1021.027155 0 0 0 691.201069 646.593733l-4.676792-5.256859a2.138998 2.138998 0 0 1-0.471305-1.087626v-0.181271c0-0.181271 0 0 0 0a3.371641 3.371641 0 0 1 0-0.471305 2.936591 2.936591 0 0 1 0.326288-0.942609z m-137.765976 319.472048h0.362542c0.108763 0-0.290034 0-0.43505 0.217525z" fill="#6298AE" p-id="5535"></path><path d="M525.80939 548.489857a1.12388 1.12388 0 0 1 1.921472 0 2.429032 2.429032 0 0 1 0 2.682811L513.555469 570.931209v1.595185l17.148238 14.791715a2.320269 2.320269 0 0 1 0.362542 2.610303 1.522677 1.522677 0 0 1-1.196389 0.942609 1.051372 1.051372 0 0 1-0.688829-0.290033L513.555469 577.166932c0.906355 61.632147 1.341406 126.454665 1.268897 192.147283l12.362683-17.220747c0-29.655939 0.725084-61.05208 1.957727-89.76541l-2.175252-1.268897a1.558931 1.558931 0 0 1-0.580067-0.870101 1.631439 1.631439 0 0 1 0-0.580067 2.827828 2.827828 0 0 1 0-0.797593l3.19037-6.960807c1.776456-36.870526 4.350505-67.976633 7.06957-82.659586 15.009241-64.967534 39.480828-32.229988 64.496229-94.478456a482.434696 482.434696 0 0 0 21.752523-78.164065l-3.117862-4.495521a2.574049 2.574049 0 0 1-0.217525-2.102744 1.631439 1.631439 0 0 1 1.268897-1.160134h3.62542a1065.873606 1065.873606 0 0 0 19.033458-164.2678l-1.921473-1.12388a1.522677 1.522677 0 0 1-0.616322-0.833847v-0.398796a2.284015 2.284015 0 0 1 0-0.978864l2.719066-5.909435a509.951637 509.951637 0 0 0-3.226624-73.849814 3.262878 3.262878 0 0 1 0 0.580067 1.413914 1.413914 0 0 1-1.123881 0.797593 1.015118 1.015118 0 0 1-0.797592-0.362542l-15.988104-16.459409c0 40.09715-2.574049 113.22188-8.991043 183.808816L628.843838 297.284475c0.68883-0.580067 1.522677-0.253779 1.885219 0.616322a2.537794 2.537794 0 0 1-0.580068 2.646557l-16.894459 12.688971v0.761338a73.994831 73.994831 0 0 0 14.501682 3.19037c0.725084-0.398796 1.37766 0 1.631439 1.051372a2.465286 2.465286 0 0 1-0.906355 2.537795 2.972845 2.972845 0 0 1-0.761338 0 58.260506 58.260506 0 0 1-12.870243-2.610303l11.38382 17.547035a2.574049 2.574049 0 0 1 0 2.682811 1.522677 1.522677 0 0 1-0.942609 0.543813 1.268897 1.268897 0 0 1-1.015118-0.616322l-11.528837-17.76456c-6.779536 69.390547-17.365764 134.140556-32.628783 159.989804-18.127102 30.199752-39.879625 37.269322-54.67134 37.921897a52.894884 52.894884 0 0 1-12.543955-0.942609c0.290034 15.734325 0.580067 31.831191 0.833847 48.181838z" fill="#6298AE" p-id="5536"></path><path d="M435.717692 331.762223c0 1.232643 0 2.537794-0.217525 3.625421s0 3.407895-0.290034 5.184351c-2.864082 53.148663-4.423013 119.965162-5.583147 193.597451v12.979005q-0.398796 24.83413-0.68883 50.502107c-0.290034 24.362825-0.580067 47.130466-0.906355 67.541582v-0.507559l5.039334 2.574049a31.21487 31.21487 0 0 1-5.438131 9.498601c0 9.099805-0.362542 17.547035-0.580067 25.196672a9.027297 9.027297 0 0 1 0.68883-0.797592l3.62542 5.546893s-1.667693 1.993981-4.459267 4.785555c-0.217525 6.670774-0.471305 12.543955-0.761338 17.510781-3.951708 70.333156-7.794654 158.648398-10.876261 245.876013v10.006161c0 4.132979-0.253779 8.302213-0.398797 12.435192l5.438131 0.471304c0-4.241742 0.253779-8.44723 0.398796-12.688971v-2.320269-4.531776-5.039334c2.900336-86.57504 6.743282-174.201452 10.658736-244.063303 1.450168-25.704231 2.06649-74.901186 2.791574-131.784033 0.217525-17.111984 0.43505-35.311595 0.68883-54.091273v-3.842945-5.329368c0.978864-65.257568 2.465286-136.388317 5.583147-194.250027 0-1.522677 0-3.045353 0.25378-4.56803v-1.631439c0-1.740202 0.181271-3.62542 0.290034-5.184351 2.864082-48.181837 6.997061-85.451159 13.087767-99.554045a53.910002 53.910002 0 0 0-7.758399 6.852044c-4.858063 19.287237-8.302213 51.952275-10.876262 94.260932 0.326288 0.68883 0.326288 1.232643 0.290034 1.740201zM471.391829 433.672792v6.707027c-1.37766 87.01009-3.62542 157.089467-6.344486 227.930183v7.323349l-0.217525 5.474385v3.951708c-2.06649 56.991609-4.169233 114.708302-5.873181 182.141122v11.456329c-0.906355 37.269322-1.703948 77.69276-2.320269 122.466702l" fill="#477C95" p-id="5537"></path></svg>